<svg width="230" height="71" viewBox="0 0 230 71" fill="none" xmlns="http://www.w3.org/2000/svg">
<path d="M41.6562 47.3594H55.6719C55.3906 51.9531 54.125 56.0312 51.875 59.5938C49.6562 63.1562 46.5469 65.9375 42.5469 67.9375C38.5781 69.9375 33.7969 70.9375 28.2031 70.9375C23.8281 70.9375 19.9062 70.1875 16.4375 68.6875C12.9688 67.1562 10 64.9688 7.53125 62.125C5.09375 59.2812 3.23438 55.8438 1.95312 51.8125C0.671875 47.7812 0.03125 43.2656 0.03125 38.2656V33.5312C0.03125 28.5312 0.6875 24.0156 2 19.9844C3.34375 15.9219 5.25 12.4688 7.71875 9.625C10.2188 6.78125 13.2031 4.59375 16.6719 3.0625C20.1406 1.53125 24.0156 0.765625 28.2969 0.765625C33.9844 0.765625 38.7812 1.79688 42.6875 3.85938C46.625 5.92188 49.6719 8.76563 51.8281 12.3906C54.0156 16.0156 55.3281 20.1406 55.7656 24.7656H41.7031C41.5469 22.0156 41 19.6875 40.0625 17.7812C39.125 15.8438 37.7031 14.3906 35.7969 13.4219C33.9219 12.4219 31.4219 11.9219 28.2969 11.9219C25.9531 11.9219 23.9062 12.3594 22.1562 13.2344C20.4062 14.1094 18.9375 15.4375 17.75 17.2188C16.5625 19 15.6719 21.25 15.0781 23.9688C14.5156 26.6562 14.2344 29.8125 14.2344 33.4375V38.2656C14.2344 41.7969 14.5 44.9062 15.0312 47.5938C15.5625 50.25 16.375 52.5 17.4688 54.3438C18.5938 56.1562 20.0312 57.5312 21.7812 58.4688C23.5625 59.375 25.7031 59.8281 28.2031 59.8281C31.1406 59.8281 33.5625 59.3594 35.4688 58.4219C37.375 57.4844 38.8281 56.0938 39.8281 54.25C40.8594 52.4062 41.4688 50.1094 41.6562 47.3594ZM100.674 1.75H114.689V46.8438C114.689 52.0938 113.564 56.5156 111.314 60.1094C109.096 63.7031 106.018 66.4062 102.08 68.2188C98.1738 70.0312 93.6738 70.9375 88.58 70.9375C83.4863 70.9375 78.955 70.0312 74.9863 68.2188C71.0488 66.4062 67.955 63.7031 65.705 60.1094C63.4863 56.5156 62.3769 52.0938 62.3769 46.8438V1.75H76.4394V46.8438C76.4394 49.9062 76.9238 52.4062 77.8925 54.3438C78.8613 56.2812 80.2519 57.7031 82.0644 58.6094C83.9081 59.5156 86.08 59.9688 88.58 59.9688C91.1425 59.9688 93.3144 59.5156 95.0956 58.6094C96.9081 57.7031 98.2831 56.2812 99.2206 54.3438C100.189 52.4062 100.674 49.9062 100.674 46.8438V1.75ZM151.066 40.0469H133.535L133.441 30.3906H148.16C150.754 30.3906 152.879 30.0625 154.535 29.4062C156.191 28.7188 157.426 27.7344 158.238 26.4531C159.082 25.1406 159.504 23.5469 159.504 21.6719C159.504 19.5469 159.098 17.8281 158.285 16.5156C157.504 15.2031 156.269 14.25 154.582 13.6562C152.926 13.0625 150.785 12.7656 148.16 12.7656H138.41V70H124.348V1.75H148.16C152.129 1.75 155.676 2.125 158.801 2.875C161.957 3.625 164.629 4.76562 166.816 6.29688C169.004 7.82813 170.676 9.76562 171.832 12.1094C172.988 14.4219 173.566 17.1719 173.566 20.3594C173.566 23.1719 172.926 25.7656 171.644 28.1406C170.394 30.5156 168.41 32.4531 165.691 33.9531C163.004 35.4531 159.488 36.2812 155.144 36.4375L151.066 40.0469ZM150.457 70H129.691L135.176 59.0312H150.457C152.926 59.0312 154.941 58.6406 156.504 57.8594C158.066 57.0469 159.223 55.9531 159.973 54.5781C160.723 53.2031 161.098 51.625 161.098 49.8438C161.098 47.8438 160.754 46.1094 160.066 44.6406C159.41 43.1719 158.348 42.0469 156.879 41.2656C155.41 40.4531 153.473 40.0469 151.066 40.0469H137.519L137.613 30.3906H154.488L157.723 34.1875C161.879 34.125 165.223 34.8594 167.754 36.3906C170.316 37.8906 172.176 39.8438 173.332 42.25C174.519 44.6562 175.113 47.2344 175.113 49.9844C175.113 54.3594 174.16 58.0469 172.254 61.0469C170.348 64.0156 167.551 66.25 163.863 67.75C160.207 69.25 155.738 70 150.457 70ZM229.537 59.0312V70H193.209V59.0312H229.537ZM197.803 1.75V70H183.74V1.75H197.803ZM224.803 29.5469V40.2344H193.209V29.5469H224.803ZM229.49 1.75V12.7656H193.209V1.75H229.49Z" fill="white"/>
</svg>
