<svg width="172" height="71" viewBox="0 0 172 71" fill="none" xmlns="http://www.w3.org/2000/svg">
<path d="M38.625 52.1406C38.625 50.9219 38.4375 49.8281 38.0625 48.8594C37.7188 47.8594 37.0625 46.9531 36.0938 46.1406C35.125 45.2969 33.7656 44.4688 32.0156 43.6562C30.2656 42.8438 28 42 25.2188 41.125C22.125 40.125 19.1875 39 16.4062 37.75C13.6562 36.5 11.2188 35.0469 9.09375 33.3906C7 31.7031 5.34375 29.75 4.125 27.5312C2.9375 25.3125 2.34375 22.7344 2.34375 19.7969C2.34375 16.9531 2.96875 14.375 4.21875 12.0625C5.46875 9.71875 7.21875 7.71875 9.46875 6.0625C11.7188 4.375 14.375 3.07812 17.4375 2.17188C20.5312 1.26563 23.9219 0.8125 27.6094 0.8125C32.6406 0.8125 37.0312 1.71875 40.7812 3.53125C44.5312 5.34375 47.4375 7.82813 49.5 10.9844C51.5938 14.1406 52.6406 17.75 52.6406 21.8125H38.6719C38.6719 19.8125 38.25 18.0625 37.4062 16.5625C36.5938 15.0312 35.3438 13.8281 33.6562 12.9531C32 12.0781 29.9062 11.6406 27.375 11.6406C24.9375 11.6406 22.9062 12.0156 21.2812 12.7656C19.6562 13.4844 18.4375 14.4687 17.625 15.7188C16.8125 16.9375 16.4062 18.3125 16.4062 19.8438C16.4062 21 16.6875 22.0469 17.25 22.9844C17.8438 23.9219 18.7188 24.7969 19.875 25.6094C21.0312 26.4219 22.4531 27.1875 24.1406 27.9062C25.8281 28.625 27.7812 29.3281 30 30.0156C33.7188 31.1406 36.9844 32.4062 39.7969 33.8125C42.6406 35.2188 45.0156 36.7969 46.9219 38.5469C48.8281 40.2969 50.2656 42.2812 51.2344 44.5C52.2031 46.7188 52.6875 49.2344 52.6875 52.0469C52.6875 55.0156 52.1094 57.6719 50.9531 60.0156C49.7969 62.3594 48.125 64.3438 45.9375 65.9688C43.75 67.5938 41.1406 68.8281 38.1094 69.6719C35.0781 70.5156 31.6875 70.9375 27.9375 70.9375C24.5625 70.9375 21.2344 70.5 17.9531 69.625C14.6719 68.7188 11.6875 67.3594 9 65.5469C6.34375 63.7344 4.21875 61.4219 2.625 58.6094C1.03125 55.7969 0.234375 52.4688 0.234375 48.625H14.3438C14.3438 50.75 14.6719 52.5469 15.3281 54.0156C15.9844 55.4844 16.9062 56.6719 18.0938 57.5781C19.3125 58.4844 20.75 59.1406 22.4062 59.5469C24.0938 59.9531 25.9375 60.1562 27.9375 60.1562C30.375 60.1562 32.375 59.8125 33.9375 59.125C35.5312 58.4375 36.7031 57.4844 37.4531 56.2656C38.2344 55.0469 38.625 53.6719 38.625 52.1406ZM98.0175 1.75H112.033V46.8438C112.033 52.0938 110.908 56.5156 108.658 60.1094C106.439 63.7031 103.361 66.4062 99.4238 68.2188C95.5175 70.0312 91.0175 70.9375 85.9238 70.9375C80.83 70.9375 76.2988 70.0312 72.33 68.2188C68.3925 66.4062 65.2988 63.7031 63.0488 60.1094C60.83 56.5156 59.7206 52.0938 59.7206 46.8438V1.75H73.7831V46.8438C73.7831 49.9062 74.2675 52.4062 75.2363 54.3438C76.205 56.2812 77.5956 57.7031 79.4081 58.6094C81.2519 59.5156 83.4238 59.9688 85.9238 59.9688C88.4863 59.9688 90.6581 59.5156 92.4394 58.6094C94.2519 57.7031 95.6269 56.2812 96.5644 54.3438C97.5331 52.4062 98.0175 49.9062 98.0175 46.8438V1.75ZM157.223 52.1406C157.223 50.9219 157.035 49.8281 156.66 48.8594C156.316 47.8594 155.66 46.9531 154.691 46.1406C153.723 45.2969 152.363 44.4688 150.613 43.6562C148.863 42.8438 146.598 42 143.816 41.125C140.723 40.125 137.785 39 135.004 37.75C132.254 36.5 129.816 35.0469 127.691 33.3906C125.598 31.7031 123.941 29.75 122.723 27.5312C121.535 25.3125 120.941 22.7344 120.941 19.7969C120.941 16.9531 121.566 14.375 122.816 12.0625C124.066 9.71875 125.816 7.71875 128.066 6.0625C130.316 4.375 132.973 3.07812 136.035 2.17188C139.129 1.26563 142.519 0.8125 146.207 0.8125C151.238 0.8125 155.629 1.71875 159.379 3.53125C163.129 5.34375 166.035 7.82813 168.098 10.9844C170.191 14.1406 171.238 17.75 171.238 21.8125H157.269C157.269 19.8125 156.848 18.0625 156.004 16.5625C155.191 15.0312 153.941 13.8281 152.254 12.9531C150.598 12.0781 148.504 11.6406 145.973 11.6406C143.535 11.6406 141.504 12.0156 139.879 12.7656C138.254 13.4844 137.035 14.4687 136.223 15.7188C135.41 16.9375 135.004 18.3125 135.004 19.8438C135.004 21 135.285 22.0469 135.848 22.9844C136.441 23.9219 137.316 24.7969 138.473 25.6094C139.629 26.4219 141.051 27.1875 142.738 27.9062C144.426 28.625 146.379 29.3281 148.598 30.0156C152.316 31.1406 155.582 32.4062 158.394 33.8125C161.238 35.2188 163.613 36.7969 165.519 38.5469C167.426 40.2969 168.863 42.2812 169.832 44.5C170.801 46.7188 171.285 49.2344 171.285 52.0469C171.285 55.0156 170.707 57.6719 169.551 60.0156C168.394 62.3594 166.723 64.3438 164.535 65.9688C162.348 67.5938 159.738 68.8281 156.707 69.6719C153.676 70.5156 150.285 70.9375 146.535 70.9375C143.16 70.9375 139.832 70.5 136.551 69.625C133.269 68.7188 130.285 67.3594 127.598 65.5469C124.941 63.7344 122.816 61.4219 121.223 58.6094C119.629 55.7969 118.832 52.4688 118.832 48.625H132.941C132.941 50.75 133.269 52.5469 133.926 54.0156C134.582 55.4844 135.504 56.6719 136.691 57.5781C137.91 58.4844 139.348 59.1406 141.004 59.5469C142.691 59.9531 144.535 60.1562 146.535 60.1562C148.973 60.1562 150.973 59.8125 152.535 59.125C154.129 58.4375 155.301 57.4844 156.051 56.2656C156.832 55.0469 157.223 53.6719 157.223 52.1406Z" fill="white"/>
</svg>
