<svg width="77" height="58" viewBox="0 0 77 58" fill="none" xmlns="http://www.w3.org/2000/svg">
<path d="M55.7344 57.6578H40.6984V54.346C40.6984 54.3312 40.6969 54.3008 40.6946 54.2556C40.641 53.187 40.1735 43.8688 49.7288 38.575C50.981 37.9046 52.1291 37.1315 53.1517 36.27L64.5967 26.3345C65.2777 25.7403 66.2178 25.3461 67.2502 25.2217V9.96741C67.2488 9.11591 67.6855 8.29676 68.4695 7.68004C69.2535 7.06333 70.3245 6.69644 71.4602 6.65557C72.0434 6.63678 72.6255 6.70693 73.1714 6.86179C73.7172 7.01664 74.2153 7.25296 74.6355 7.55639C75.0934 7.88922 75.4571 8.28774 75.7048 8.72816C75.9525 9.16858 76.0791 9.64186 76.0772 10.1197V29.9907C76.0789 30.9443 76.1765 31.8964 76.369 32.8389C76.7582 34.826 76.8997 38.6545 73.3884 41.5822C68.5238 45.6557 64.4022 48.7887 60.0417 52.1005L58.1224 53.5445L55.7344 54.7037V57.6578ZM42.4673 56.3331H53.9654V53.9883L57.0434 52.4781L58.7593 51.1534C58.9322 51.0215 59.1048 50.8899 59.2771 50.7585C63.43 47.592 67.3979 44.5667 72.0263 40.6681C75.06 38.1445 74.9185 34.7863 74.5736 33.0045C74.3865 32.0039 74.2978 30.9944 74.3082 29.9841V10.1131C74.3119 9.81616 74.2354 9.5217 74.0835 9.2474C73.9315 8.9731 73.7071 8.7246 73.4238 8.51682C73.1771 8.33777 72.8846 8.19794 72.5639 8.10574C72.2431 8.01354 71.9008 7.97087 71.5575 7.98031C70.8708 7.99917 70.2206 8.21683 69.7439 8.58746C69.2671 8.95809 69.0009 9.45278 69.0014 9.96741V25.3078C69.655 25.4375 70.2601 25.6777 70.7703 26.0099C71.2111 26.2907 71.5727 26.6345 71.8339 27.0212C72.0951 27.4079 72.2507 27.8297 72.2916 28.262V28.5137C72.291 29.3093 71.908 30.0781 71.2126 30.6796L59.5199 40.8999C59.364 41.0264 59.1485 41.1025 58.919 41.112C58.6895 41.1215 58.464 41.0638 58.2904 40.951C58.1168 40.8382 58.0086 40.6792 57.9888 40.5077C57.969 40.3362 58.0391 40.1657 58.1843 40.0322L69.9743 29.8384C70.4037 29.4731 70.6342 29.0003 70.62 28.5137V28.3812C70.5641 27.8708 70.2473 27.3962 69.7355 27.0565C69.2977 26.7409 68.7236 26.553 68.1169 26.5266H67.94C67.5661 26.5262 67.1963 26.585 66.8549 26.6992C66.5135 26.8133 66.2081 26.9802 65.9588 27.1889L54.5138 37.1244C53.4058 38.059 52.1629 38.8987 50.8079 39.6282C41.8652 44.5928 42.4335 53.7465 42.4661 54.2702C42.4669 54.2831 42.4673 54.2907 42.4673 54.293V56.3331Z" fill="white"/>
<path d="M55.7344 57.6578H40.6984V54.346C40.6984 54.3312 40.6969 54.3008 40.6946 54.2556C40.641 53.187 40.1735 43.8688 49.7288 38.575C50.981 37.9046 52.1291 37.1315 53.1517 36.27L64.5967 26.3345C65.2777 25.7403 66.2178 25.3461 67.2502 25.2217V9.96741C67.2488 9.11591 67.6855 8.29676 68.4695 7.68004C69.2535 7.06333 70.3245 6.69644 71.4602 6.65557C72.0434 6.63678 72.6255 6.70693 73.1714 6.86179C73.7172 7.01664 74.2153 7.25296 74.6355 7.55639C75.0934 7.88922 75.4571 8.28774 75.7048 8.72816C75.9525 9.16858 76.0791 9.64186 76.0772 10.1197V29.9907C76.0789 30.9443 76.1765 31.8964 76.369 32.8389C76.7582 34.826 76.8997 38.6545 73.3884 41.5822C68.5238 45.6557 64.4022 48.7887 60.0417 52.1005L58.1224 53.5445L55.7344 54.7037V57.6578ZM42.4673 56.3331H53.9654V53.9883L57.0434 52.4781L58.7593 51.1534C58.9322 51.0215 59.1048 50.8899 59.2771 50.7585C63.43 47.592 67.3979 44.5667 72.0263 40.6681C75.06 38.1445 74.9185 34.7863 74.5736 33.0045C74.3865 32.0039 74.2978 30.9944 74.3082 29.9841V10.1131C74.3119 9.81616 74.2354 9.5217 74.0835 9.2474C73.9315 8.9731 73.7071 8.7246 73.4238 8.51682C73.1771 8.33777 72.8846 8.19794 72.5639 8.10574C72.2431 8.01354 71.9008 7.97087 71.5575 7.98031C70.8708 7.99917 70.2206 8.21683 69.7439 8.58746C69.2671 8.95809 69.0009 9.45278 69.0014 9.96741V25.3078C69.655 25.4375 70.2601 25.6777 70.7703 26.0099C71.2111 26.2907 71.5727 26.6345 71.8339 27.0212C72.0951 27.4079 72.2507 27.8297 72.2916 28.262V28.5137C72.291 29.3093 71.908 30.0781 71.2126 30.6796L59.5199 40.8999C59.364 41.0264 59.1485 41.1025 58.919 41.112C58.6895 41.1215 58.464 41.0638 58.2904 40.951C58.1168 40.8382 58.0086 40.6792 57.9888 40.5077C57.969 40.3362 58.0391 40.1657 58.1843 40.0322L69.9743 29.8384C70.4037 29.4731 70.6342 29.0003 70.62 28.5137V28.3812C70.5641 27.8708 70.2473 27.3962 69.7355 27.0565C69.2977 26.7409 68.7236 26.553 68.1169 26.5266H67.94C67.5661 26.5262 67.1963 26.585 66.8549 26.6992C66.5135 26.8133 66.2081 26.9802 65.9588 27.1889L54.5138 37.1244C53.4058 38.059 52.1629 38.8987 50.8079 39.6282C41.8652 44.5928 42.4335 53.7465 42.4661 54.2702C42.4669 54.2831 42.4673 54.2907 42.4673 54.293V56.3331Z" stroke="white"/>
<path d="M35.8429 57.6578H20.817V54.7036L18.3156 53.4517L16.5478 52.127C12.1903 48.8151 8.07144 45.6821 3.18359 41.6019C-0.351926 38.6742 -0.192828 34.8656 0.204917 32.8586C0.390087 31.9155 0.484611 30.9636 0.487759 30.0104V10.1392C0.487358 9.65774 0.617165 9.18118 0.869343 8.73833C1.12152 8.29548 1.49084 7.89552 1.955 7.5626C2.37279 7.25848 2.86874 7.02121 3.41271 6.86521C3.95669 6.70921 4.53731 6.63774 5.11928 6.65515C6.21538 6.68956 7.25382 7.03254 8.02725 7.61559C8.44003 7.92396 8.76735 8.29048 8.99034 8.69404C9.21333 9.09759 9.32759 9.53022 9.32655 9.96701V25.2546C10.3582 25.3789 11.2976 25.7732 11.9782 26.3673L23.4156 36.3029C24.4375 37.1644 25.5849 37.9376 26.8362 38.608C36.7887 44.1255 35.896 54.0148 35.8518 54.4321L35.8429 57.6578ZM22.5847 56.3331H34.0752V54.3459C34.0752 54.3416 34.076 54.3288 34.0772 54.308C34.1191 53.6356 34.6838 44.563 25.7755 39.6413C24.431 38.9078 23.2006 38.0635 22.1074 37.1243L10.617 27.2284C10.3669 27.0189 10.0603 26.8515 9.7175 26.7373C9.37468 26.6231 9.00343 26.5648 8.62828 26.5661H8.46919C7.88201 26.5851 7.32096 26.7533 6.8782 27.043C6.36678 27.3827 6.05014 27.8573 5.99433 28.3677V28.5201C5.97833 29.0025 6.20196 29.4723 6.62188 29.8382L18.404 40.0321C18.5491 40.1655 18.6192 40.3361 18.5994 40.5075C18.5796 40.679 18.4715 40.838 18.298 40.9508C18.1245 41.0636 17.8992 41.1214 17.6699 41.1119C17.4405 41.1023 17.2251 41.0263 17.0693 40.8998L5.31374 30.6993C4.59999 30.0965 4.20404 29.3193 4.20005 28.5134V28.2617C4.28802 27.3877 4.8347 26.5755 5.72032 26.003C6.24175 25.6598 6.86658 25.4166 7.54111 25.2943V9.96701C7.54197 9.70503 7.47369 9.44551 7.3402 9.20338C7.20671 8.96125 7.01065 8.74129 6.7633 8.55616C6.29139 8.20467 5.6604 7.99898 4.99554 7.97989C4.6516 7.96977 4.30855 8.01276 3.98771 8.10619C3.66688 8.19963 3.37512 8.34152 3.13056 8.52304C2.84782 8.73105 2.62385 8.97959 2.472 9.25384C2.32015 9.52809 2.24352 9.82244 2.24668 10.1194V29.9905C2.24675 31.0081 2.1463 32.0243 1.94616 33.0308C1.59261 34.8126 1.46003 38.1708 4.49173 40.6945C9.30373 44.7136 13.3709 47.8111 17.662 51.0792L17.7941 51.1798L19.5088 52.5046L22.5759 54.0148L22.5847 56.3331Z" fill="white"/>
<path d="M35.8429 57.6578H20.817V54.7036L18.3156 53.4517L16.5478 52.127C12.1903 48.8151 8.07144 45.6821 3.18359 41.6019C-0.351926 38.6742 -0.192828 34.8656 0.204917 32.8586C0.390087 31.9155 0.484611 30.9636 0.487759 30.0104V10.1392C0.487358 9.65774 0.617165 9.18118 0.869343 8.73833C1.12152 8.29548 1.49084 7.89552 1.955 7.5626C2.37279 7.25848 2.86874 7.02121 3.41271 6.86521C3.95669 6.70921 4.53731 6.63774 5.11928 6.65515C6.21538 6.68956 7.25382 7.03254 8.02725 7.61559C8.44003 7.92396 8.76735 8.29048 8.99034 8.69404C9.21333 9.09759 9.32759 9.53022 9.32655 9.96701V25.2546C10.3582 25.3789 11.2976 25.7732 11.9782 26.3673L23.4156 36.3029C24.4375 37.1644 25.5849 37.9376 26.8362 38.608C36.7887 44.1255 35.896 54.0148 35.8518 54.4321L35.8429 57.6578ZM22.5847 56.3331H34.0752V54.3459C34.0752 54.3416 34.076 54.3288 34.0772 54.308C34.1191 53.6356 34.6838 44.563 25.7755 39.6413C24.431 38.9078 23.2006 38.0635 22.1074 37.1243L10.617 27.2284C10.3669 27.0189 10.0603 26.8515 9.7175 26.7373C9.37468 26.6231 9.00343 26.5648 8.62828 26.5661H8.46919C7.88201 26.5851 7.32096 26.7533 6.8782 27.043C6.36678 27.3827 6.05014 27.8573 5.99433 28.3677V28.5201C5.97833 29.0025 6.20196 29.4723 6.62188 29.8382L18.404 40.0321C18.5491 40.1655 18.6192 40.3361 18.5994 40.5075C18.5796 40.679 18.4715 40.838 18.298 40.9508C18.1245 41.0636 17.8992 41.1214 17.6699 41.1119C17.4405 41.1023 17.2251 41.0263 17.0693 40.8998L5.31374 30.6993C4.59999 30.0965 4.20404 29.3193 4.20005 28.5134V28.2617C4.28802 27.3877 4.8347 26.5755 5.72032 26.003C6.24175 25.6598 6.86658 25.4166 7.54111 25.2943V9.96701C7.54197 9.70503 7.47369 9.44551 7.3402 9.20338C7.20671 8.96125 7.01065 8.74129 6.7633 8.55616C6.29139 8.20467 5.6604 7.99898 4.99554 7.97989C4.6516 7.96977 4.30855 8.01276 3.98771 8.10619C3.66688 8.19963 3.37512 8.34152 3.13056 8.52304C2.84782 8.73105 2.62385 8.97959 2.472 9.25384C2.32015 9.52809 2.24352 9.82244 2.24668 10.1194V29.9905C2.24675 31.0081 2.1463 32.0243 1.94616 33.0308C1.59261 34.8126 1.46003 38.1708 4.49173 40.6945C9.30373 44.7136 13.3709 47.8111 17.662 51.0792L17.7941 51.1798L19.5088 52.5046L22.5759 54.0148L22.5847 56.3331Z" stroke="white"/>
<path d="M46.9617 35.4814H46.9093C46.6984 35.4723 46.4989 35.4058 46.3479 35.2942C46.1969 35.1826 46.1046 35.0335 46.088 34.8744C46.0356 34.8217 45.6686 34.5446 44.1833 34.5446C40.0856 34.5446 37.0888 34.4786 35.9792 33.6342C35.0356 32.9283 35.5598 31.7803 36.0666 30.672C36.3613 30.1283 36.5639 29.5586 36.6695 28.9765C35.981 28.8447 35.274 28.776 34.5638 28.772L34.5461 28.7712C32.4435 28.6724 29.8351 28.5498 29.1293 26.9512C28.876 26.3706 28.1683 26.2915 26.1849 26.4432L26.1474 26.4454C24.619 26.5373 22.8992 26.6407 21.7552 25.7835C21.1867 25.4356 20.7369 24.9899 20.4435 24.4836C20.1501 23.9774 20.0217 23.4255 20.069 22.8741C20.1632 22.4874 20.3835 22.1245 20.7099 21.8181C21.0363 21.5117 21.4586 21.2716 21.9387 21.1192C23.0309 20.7036 24.5599 21.1192 26.2548 21.6404L26.2994 21.6532C28.4291 22.2637 30.8335 22.9529 32.1436 21.9571C34.4328 20.2352 33.8911 19.2324 32.1436 17.88C31.9413 17.6869 31.6638 17.5467 31.3502 17.4792C31.0367 17.4118 30.7029 17.4204 30.3962 17.504C30.0722 17.5799 29.7741 17.7082 29.5225 17.88L29.0769 18.2165L24.5948 16.521V16.4418C23.913 15.9139 23.3121 15.3297 22.8037 14.7001C21.3533 12.8793 21.93 11.8106 22.6639 11.23C22.0785 10.8738 19.7632 10.3922 17.509 10.181C17.2798 10.1581 17.0719 10.0674 16.9311 9.92886C16.7902 9.79035 16.7279 9.61533 16.7576 9.44216C16.7881 9.27034 16.907 9.1145 17.0885 9.00833C17.27 8.90216 17.4995 8.85419 17.7275 8.8748C19.9816 9.08591 23.8434 9.62688 24.4113 10.854C24.5077 11.0782 24.5134 11.3191 24.4279 11.5459C24.3423 11.7726 24.1692 11.975 23.9308 12.1272C22.9173 12.8925 24.9705 14.8123 25.7306 15.4258L28.8934 16.6199C29.2111 16.4598 29.5546 16.3312 29.9157 16.2373C30.5245 16.0848 31.1788 16.069 31.7993 16.192C32.4197 16.315 32.9794 16.5714 33.4105 16.93C35.2366 18.3154 36.9054 20.2286 33.4105 22.8675C31.3219 24.4446 28.2694 23.5955 25.7751 22.9017C25.7339 22.8903 25.6929 22.8789 25.652 22.8675L25.6311 22.8615C24.5759 22.5586 23.1505 22.1494 22.7425 22.3001C22.5157 22.3649 22.3131 22.4701 22.1518 22.6068C21.9905 22.7435 21.8755 22.9076 21.8164 23.0852C21.8302 23.4212 21.9405 23.751 22.1396 24.0517C22.3387 24.3524 22.622 24.6169 22.9697 24.8269C23.5464 25.2623 24.8045 25.1831 26.0277 25.104C27.7751 24.9918 30.038 24.8533 30.7719 26.5158C31.1039 27.2678 33.0698 27.3602 34.6512 27.4328C36.3986 27.5119 38.4081 27.6043 38.4081 28.871C38.333 29.6375 38.0971 30.3902 37.7092 31.1008C37.4113 31.6115 37.2424 32.1597 37.2111 32.7171C37.8926 33.2251 42.1389 33.2251 44.2008 33.2251C44.7641 33.1808 45.3334 33.2222 45.8752 33.3468C46.4169 33.4715 46.9201 33.6769 47.3549 33.9508C47.5146 34.0695 47.641 34.2114 47.7266 34.3678C47.8122 34.5242 47.8551 34.692 47.8529 34.8612C47.8394 35.0316 47.739 35.1913 47.5729 35.3069C47.4067 35.4226 47.1877 35.4851 46.9617 35.4814Z" fill="white"/>
<path d="M46.9617 35.4814H46.9093C46.6984 35.4723 46.4989 35.4058 46.3479 35.2942C46.1969 35.1826 46.1046 35.0335 46.088 34.8744C46.0356 34.8217 45.6686 34.5446 44.1833 34.5446C40.0856 34.5446 37.0888 34.4786 35.9792 33.6342C35.0356 32.9283 35.5598 31.7803 36.0666 30.672C36.3613 30.1283 36.5639 29.5586 36.6695 28.9765C35.981 28.8447 35.274 28.776 34.5638 28.772L34.5461 28.7712C32.4435 28.6724 29.8351 28.5498 29.1293 26.9512C28.876 26.3706 28.1683 26.2915 26.1849 26.4432L26.1474 26.4454C24.619 26.5373 22.8992 26.6407 21.7552 25.7835C21.1867 25.4356 20.7369 24.9899 20.4435 24.4836C20.1501 23.9774 20.0217 23.4255 20.069 22.8741C20.1632 22.4874 20.3835 22.1245 20.7099 21.8181C21.0363 21.5117 21.4586 21.2716 21.9387 21.1192C23.0309 20.7036 24.5599 21.1192 26.2548 21.6404L26.2994 21.6532C28.4291 22.2637 30.8335 22.9529 32.1436 21.9571C34.4328 20.2352 33.8911 19.2324 32.1436 17.88C31.9413 17.6869 31.6638 17.5467 31.3502 17.4792C31.0367 17.4118 30.7029 17.4204 30.3962 17.504C30.0722 17.5799 29.7741 17.7082 29.5225 17.88L29.0769 18.2165L24.5948 16.521V16.4418C23.913 15.9139 23.3121 15.3297 22.8037 14.7001C21.3533 12.8793 21.93 11.8106 22.6639 11.23C22.0785 10.8738 19.7632 10.3922 17.509 10.181C17.2798 10.1581 17.0719 10.0674 16.9311 9.92886C16.7902 9.79035 16.7279 9.61533 16.7576 9.44216C16.7881 9.27034 16.907 9.1145 17.0885 9.00833C17.27 8.90216 17.4995 8.85419 17.7275 8.8748C19.9816 9.08591 23.8434 9.62688 24.4113 10.854C24.5077 11.0782 24.5134 11.3191 24.4279 11.5459C24.3423 11.7726 24.1692 11.975 23.9308 12.1272C22.9173 12.8925 24.9705 14.8123 25.7306 15.4258L28.8934 16.6199C29.2111 16.4598 29.5546 16.3312 29.9157 16.2373C30.5245 16.0848 31.1788 16.069 31.7993 16.192C32.4197 16.315 32.9794 16.5714 33.4105 16.93C35.2366 18.3154 36.9054 20.2286 33.4105 22.8675C31.3219 24.4446 28.2694 23.5955 25.7751 22.9017C25.7339 22.8903 25.6929 22.8789 25.652 22.8675L25.6311 22.8615C24.5759 22.5586 23.1505 22.1494 22.7425 22.3001C22.5157 22.3649 22.3131 22.4701 22.1518 22.6068C21.9905 22.7435 21.8755 22.9076 21.8164 23.0852C21.8302 23.4212 21.9405 23.751 22.1396 24.0517C22.3387 24.3524 22.622 24.6169 22.9697 24.8269C23.5464 25.2623 24.8045 25.1831 26.0277 25.104C27.7751 24.9918 30.038 24.8533 30.7719 26.5158C31.1039 27.2678 33.0698 27.3602 34.6512 27.4328C36.3986 27.5119 38.4081 27.6043 38.4081 28.871C38.333 29.6375 38.0971 30.3902 37.7092 31.1008C37.4113 31.6115 37.2424 32.1597 37.2111 32.7171C37.8926 33.2251 42.1389 33.2251 44.2008 33.2251C44.7641 33.1808 45.3334 33.2222 45.8752 33.3468C46.4169 33.4715 46.9201 33.6769 47.3549 33.9508C47.5146 34.0695 47.641 34.2114 47.7266 34.3678C47.8122 34.5242 47.8551 34.692 47.8529 34.8612C47.8394 35.0316 47.739 35.1913 47.5729 35.3069C47.4067 35.4226 47.1877 35.4851 46.9617 35.4814Z" stroke="white"/>
<path d="M45.6652 19.9586C44.5642 19.9586 43.5927 19.1112 42.9451 18.4425C39.4316 14.6093 35.5133 11.3389 34.4527 11.3389C34.0667 11.6562 33.5709 11.8689 33.0323 11.9482C32.4937 12.0276 31.9382 11.9697 31.4411 11.7825C30.6921 11.5094 30.0449 11.0787 29.5656 10.5345C29.0864 9.99018 28.7921 9.35172 28.7129 8.68416C28.7129 7.62794 30.186 7.03249 31.607 6.45805L31.6193 6.45311C32.2553 6.2362 32.8519 5.94884 33.3922 5.59909L33.3436 5.55937C33.112 5.375 32.9298 5.15326 32.8085 4.90822C32.6873 4.66319 32.6296 4.40021 32.6393 4.136C32.7112 2.4567 35.2437 0.500084 35.5976 0.22669C35.6022 0.223088 35.6065 0.219778 35.6104 0.216765C35.6865 0.148259 35.7794 0.0935726 35.883 0.0562359C35.9866 0.0188992 36.0986 -0.000257388 36.2118 2.61153e-06C36.325 0.000262611 36.4369 0.0199336 36.5402 0.0577455C36.6435 0.0955574 36.736 0.15067 36.8117 0.219524C36.8873 0.288378 36.9445 0.369443 36.9795 0.457485C37.0144 0.545527 37.0264 0.638589 37.0147 0.730662C37.003 0.822735 36.9678 0.911771 36.9113 0.992023C36.8549 1.07228 36.7785 1.14196 36.6871 1.19657C35.7642 1.85861 34.2584 3.28859 34.2584 4.1691C34.2499 4.25324 34.2644 4.33788 34.3008 4.41688C34.3372 4.49589 34.3946 4.56729 34.4689 4.6259C34.6679 4.76944 34.8207 4.95078 34.9139 5.15396C35.0071 5.35714 35.0377 5.57593 35.0032 5.79108C34.8367 6.61453 33.6607 7.09507 32.3954 7.61208C32.3688 7.62296 32.3422 7.63386 32.3155 7.64477C31.6921 7.89634 30.3968 8.41935 30.3078 8.69078C30.3855 9.09476 30.5845 9.47671 30.8868 9.80248C31.1891 10.1283 31.5854 10.3877 32.0402 10.5577C32.2489 10.6525 32.4908 10.6864 32.7262 10.6539C32.9615 10.6214 33.1764 10.5245 33.3355 10.379C33.4943 10.2514 33.6853 10.1539 33.8951 10.0933C34.1049 10.0327 34.3284 10.0104 34.5499 10.0281C37.1922 10.1829 42.7855 16.0816 44.1644 17.5358C44.2008 17.5742 44.2343 17.6095 44.2647 17.6415C45.2723 18.6666 45.6967 18.6425 45.7209 18.6412C45.7214 18.6411 45.7217 18.6411 45.7219 18.6411C46.0036 18.609 46.3594 17.9006 46.648 17.3263C46.7161 17.1909 46.7804 17.0629 46.8391 16.9529C47.1467 16.1281 47.6501 15.361 48.3206 14.6954C48.6641 14.4145 48.6405 14.2513 48.6299 14.1781C48.6293 14.1737 48.6287 14.1696 48.6282 14.1658C48.523 13.7752 47.7053 12.8947 43.3175 11.4647C40.573 10.5643 40.2492 9.72355 40.6135 8.57161L40.6183 8.5566C40.7442 8.16444 40.7869 8.03148 40.4111 7.72421C39.3587 6.86357 39.3911 6.18168 39.6016 5.73811C40.0549 4.84437 41.6579 4.41405 44.4994 4.41405C45.2441 4.46964 45.9875 4.2973 46.5857 3.9304C47.184 3.5635 47.5944 3.02813 47.7377 2.42795C47.7731 2.25237 47.8924 2.09549 48.0693 1.99182C48.2461 1.88815 48.4661 1.84618 48.6808 1.87516C48.8955 1.90413 49.0874 2.00166 49.2142 2.1463C49.3409 2.29094 49.3922 2.47084 49.3568 2.64642C49.1394 3.55319 48.5275 4.36479 47.6343 4.93083C46.7412 5.49686 45.6274 5.77897 44.4994 5.72487C41.9979 5.72487 41.1883 6.10223 41.0993 6.23464C41.0993 6.23464 41.0993 6.40677 41.5526 6.75102C41.9006 7.01584 42.146 7.35835 42.2582 7.73611C42.3705 8.11387 42.3447 8.51026 42.1841 8.87615L42.1834 8.87822C42.0462 9.30063 41.9687 9.53926 43.9165 10.2002C48.021 11.5243 49.8992 12.6365 50.2069 13.8679C50.2797 14.184 50.2492 14.5103 50.1184 14.8137C49.9876 15.1171 49.7612 15.3869 49.4621 15.5958C48.9656 16.1379 48.5902 16.7476 48.353 17.3965L48.3452 17.4127C47.7971 18.5663 47.2296 19.7607 45.9243 19.9188C45.8397 19.939 45.7529 19.9523 45.6652 19.9586Z" fill="white"/>
<path d="M45.6652 19.9586C44.5642 19.9586 43.5927 19.1112 42.9451 18.4425C39.4316 14.6093 35.5133 11.3389 34.4527 11.3389C34.0667 11.6562 33.5709 11.8689 33.0323 11.9482C32.4937 12.0276 31.9382 11.9697 31.4411 11.7825C30.6921 11.5094 30.0449 11.0787 29.5656 10.5345C29.0864 9.99018 28.7921 9.35172 28.7129 8.68416C28.7129 7.62794 30.186 7.03249 31.607 6.45805L31.6193 6.45311C32.2553 6.2362 32.8519 5.94884 33.3922 5.59909L33.3436 5.55937C33.112 5.375 32.9298 5.15326 32.8085 4.90822C32.6873 4.66319 32.6296 4.40021 32.6393 4.136C32.7112 2.4567 35.2437 0.500084 35.5976 0.22669C35.6022 0.223088 35.6065 0.219778 35.6104 0.216765C35.6865 0.148259 35.7794 0.0935726 35.883 0.0562359C35.9866 0.0188992 36.0986 -0.000257388 36.2118 2.61153e-06C36.325 0.000262611 36.4369 0.0199336 36.5402 0.0577455C36.6435 0.0955574 36.736 0.15067 36.8117 0.219524C36.8873 0.288378 36.9445 0.369443 36.9795 0.457485C37.0144 0.545527 37.0264 0.638589 37.0147 0.730662C37.003 0.822735 36.9678 0.911771 36.9113 0.992023C36.8549 1.07228 36.7785 1.14196 36.6871 1.19657C35.7642 1.85861 34.2584 3.28859 34.2584 4.1691C34.2499 4.25324 34.2644 4.33788 34.3008 4.41688C34.3372 4.49589 34.3946 4.56729 34.4689 4.6259C34.6679 4.76944 34.8207 4.95078 34.9139 5.15396C35.0071 5.35714 35.0377 5.57593 35.0032 5.79108C34.8367 6.61453 33.6607 7.09507 32.3954 7.61208C32.3688 7.62296 32.3422 7.63386 32.3155 7.64477C31.6921 7.89634 30.3968 8.41935 30.3078 8.69078C30.3855 9.09476 30.5845 9.47671 30.8868 9.80248C31.1891 10.1283 31.5854 10.3877 32.0402 10.5577C32.2489 10.6525 32.4908 10.6864 32.7262 10.6539C32.9615 10.6214 33.1764 10.5245 33.3355 10.379C33.4943 10.2514 33.6853 10.1539 33.8951 10.0933C34.1049 10.0327 34.3284 10.0104 34.5499 10.0281C37.1922 10.1829 42.7855 16.0816 44.1644 17.5358C44.2008 17.5742 44.2343 17.6095 44.2647 17.6415C45.2723 18.6666 45.6967 18.6425 45.7209 18.6412C45.7214 18.6411 45.7217 18.6411 45.7219 18.6411C46.0036 18.609 46.3594 17.9006 46.648 17.3263C46.7161 17.1909 46.7804 17.0629 46.8391 16.9529C47.1467 16.1281 47.6501 15.361 48.3206 14.6954C48.6641 14.4145 48.6405 14.2513 48.6299 14.1781C48.6293 14.1737 48.6287 14.1696 48.6282 14.1658C48.523 13.7752 47.7053 12.8947 43.3175 11.4647C40.573 10.5643 40.2492 9.72355 40.6135 8.57161L40.6183 8.5566C40.7442 8.16444 40.7869 8.03148 40.4111 7.72421C39.3587 6.86357 39.3911 6.18168 39.6016 5.73811C40.0549 4.84437 41.6579 4.41405 44.4994 4.41405C45.2441 4.46964 45.9875 4.2973 46.5857 3.9304C47.184 3.5635 47.5944 3.02813 47.7377 2.42795C47.7731 2.25237 47.8924 2.09549 48.0693 1.99182C48.2461 1.88815 48.4661 1.84618 48.6808 1.87516C48.8955 1.90413 49.0874 2.00166 49.2142 2.1463C49.3409 2.29094 49.3922 2.47084 49.3568 2.64642C49.1394 3.55319 48.5275 4.36479 47.6343 4.93083C46.7412 5.49686 45.6274 5.77897 44.4994 5.72487C41.9979 5.72487 41.1883 6.10223 41.0993 6.23464C41.0993 6.23464 41.0993 6.40677 41.5526 6.75102C41.9006 7.01584 42.146 7.35835 42.2582 7.73611C42.3705 8.11387 42.3447 8.51026 42.1841 8.87615L42.1834 8.87822C42.0462 9.30063 41.9687 9.53926 43.9165 10.2002C48.021 11.5243 49.8992 12.6365 50.2069 13.8679C50.2797 14.184 50.2492 14.5103 50.1184 14.8137C49.9876 15.1171 49.7612 15.3869 49.4621 15.5958C48.9656 16.1379 48.5902 16.7476 48.353 17.3965L48.3452 17.4127C47.7971 18.5663 47.2296 19.7607 45.9243 19.9188C45.8397 19.939 45.7529 19.9523 45.6652 19.9586Z" stroke="white"/>
<path d="M55.4657 33.2641C55.2995 33.2635 55.1359 33.2331 54.9884 33.1755C54.8408 33.1178 54.7136 33.0345 54.6172 32.9325C53.3864 31.5457 52.2636 30.1063 51.2545 28.6213C51.1183 28.4082 50.9297 28.3608 49.3689 28.6213C47.1178 29.0724 44.7274 28.9073 42.6225 28.1555C42.238 28.0496 41.8867 27.8848 41.5909 27.6715C41.295 27.4582 41.061 27.201 40.9035 26.9162C40.746 26.6313 40.6686 26.325 40.6759 26.0165C40.6833 25.7079 40.7754 25.4039 40.9464 25.1235C42.0987 23.0311 47.2318 20.7966 50.2488 21.5625C52.6897 22.1705 53.4439 21.2309 54.6696 19.3833C55.894 17.5376 59.5541 17.6853 62.4858 17.8037L62.4949 17.8041L63.6054 17.8515C63.874 17.8616 64.1272 17.9493 64.3125 18.0962C64.4977 18.2432 64.6009 18.4383 64.6006 18.6411C64.6006 18.8505 64.4902 19.0513 64.2937 19.1994C64.0973 19.3474 63.8308 19.4306 63.553 19.4306L62.3692 19.3596L62.3182 19.3573C60.2235 19.2625 57.1267 19.1223 56.5552 20.0465L56.5552 20.0465C55.4238 21.752 53.8734 24.0892 49.5993 23.0153C47.8289 22.5732 43.691 24.2234 42.8844 25.692C42.7168 26.0078 42.6225 26.3474 43.5653 26.7027C45.268 27.2971 47.1969 27.412 49.0022 27.0264C50.4479 26.8211 52.2497 26.5763 53.1925 27.9107C54.1381 29.3197 55.1873 30.6878 56.3352 32.0087C56.4506 32.1276 56.5195 32.2685 56.5342 32.4154C56.5489 32.5624 56.5087 32.7095 56.4183 32.8401C56.3278 32.9707 56.1906 33.0797 56.0223 33.1546C55.854 33.2295 55.6612 33.2674 55.4657 33.2641Z" fill="white"/>
<path d="M55.4657 33.2641C55.2995 33.2635 55.1359 33.2331 54.9884 33.1755C54.8408 33.1178 54.7136 33.0345 54.6172 32.9325C53.3864 31.5457 52.2636 30.1063 51.2545 28.6213C51.1183 28.4082 50.9297 28.3608 49.3689 28.6213C47.1178 29.0724 44.7274 28.9073 42.6225 28.1555C42.238 28.0496 41.8867 27.8848 41.5909 27.6715C41.295 27.4582 41.061 27.201 40.9035 26.9162C40.746 26.6313 40.6686 26.325 40.6759 26.0165C40.6833 25.7079 40.7754 25.4039 40.9464 25.1235C42.0987 23.0311 47.2318 20.7966 50.2488 21.5625C52.6897 22.1705 53.4439 21.2309 54.6696 19.3833C55.894 17.5376 59.5541 17.6853 62.4858 17.8037L62.4949 17.8041L63.6054 17.8515C63.874 17.8616 64.1272 17.9493 64.3125 18.0962C64.4977 18.2432 64.6009 18.4383 64.6006 18.6411C64.6006 18.8505 64.4902 19.0513 64.2937 19.1994C64.0973 19.3474 63.8308 19.4306 63.553 19.4306L62.3692 19.3596L62.3182 19.3573C60.2235 19.2625 57.1267 19.1223 56.5552 20.0465L56.5552 20.0465C55.4238 21.752 53.8734 24.0892 49.5993 23.0153C47.8289 22.5732 43.691 24.2234 42.8844 25.692C42.7168 26.0078 42.6225 26.3474 43.5653 26.7027C45.268 27.2971 47.1969 27.412 49.0022 27.0264C50.4479 26.8211 52.2497 26.5763 53.1925 27.9107C54.1381 29.3197 55.1873 30.6878 56.3352 32.0087C56.4506 32.1276 56.5195 32.2685 56.5342 32.4154C56.5489 32.5624 56.5087 32.7095 56.4183 32.8401C56.3278 32.9707 56.1906 33.0797 56.0223 33.1546C55.854 33.2295 55.6612 33.2674 55.4657 33.2641Z" stroke="white"/>
<path d="M38.2829 37.6995C33.0782 37.6995 27.9903 36.5941 23.6626 34.5232C19.3349 32.4523 15.9617 29.5087 13.9695 26.0648C11.9773 22.6208 11.4556 18.8311 12.4703 15.1748C13.485 11.5185 15.9906 8.15981 19.6702 5.52336C23.3499 2.88691 28.0383 1.09111 33.1428 0.363026C38.2473 -0.365059 43.5386 0.00726443 48.3477 1.43292C53.1568 2.85858 57.2677 5.27354 60.1606 8.37248C63.0536 11.4714 64.5987 15.1152 64.6005 18.843C64.5931 23.8412 61.8182 28.6333 56.8846 32.1682C51.951 35.7032 45.2614 37.6923 38.2829 37.6995ZM38.2829 1.35221C33.4508 1.35221 28.7272 2.3786 24.7096 4.30155C20.6919 6.2245 17.5607 8.95764 15.7119 12.1553C13.8632 15.3529 13.38 18.8715 14.3234 22.2658C15.2667 25.6602 17.5944 28.778 21.0119 31.2248C24.4294 33.6716 28.7832 35.3375 33.5227 36.0119C38.2622 36.6863 43.1745 36.3388 47.6383 35.0134C52.1021 33.688 55.9168 31.4443 58.6001 28.5659C61.2833 25.6876 62.7145 22.304 62.7126 18.843C62.7051 14.204 60.1289 9.75655 55.5491 6.47629C50.9692 3.19603 44.7598 1.35082 38.2829 1.34545V1.35221Z" fill="white"/>
<path d="M38.2829 37.6995C33.0782 37.6995 27.9903 36.5941 23.6626 34.5232C19.3349 32.4523 15.9617 29.5087 13.9695 26.0648C11.9773 22.6208 11.4556 18.8311 12.4703 15.1748C13.485 11.5185 15.9906 8.15981 19.6702 5.52336C23.3499 2.88691 28.0383 1.09111 33.1428 0.363026C38.2473 -0.365059 43.5386 0.00726443 48.3477 1.43292C53.1568 2.85858 57.2677 5.27354 60.1606 8.37248C63.0536 11.4714 64.5987 15.1152 64.6005 18.843C64.5931 23.8412 61.8182 28.6333 56.8846 32.1682C51.951 35.7032 45.2614 37.6923 38.2829 37.6995ZM38.2829 1.35221C33.4508 1.35221 28.7272 2.3786 24.7096 4.30155C20.6919 6.2245 17.5607 8.95764 15.7119 12.1553C13.8632 15.3529 13.38 18.8715 14.3234 22.2658C15.2667 25.6602 17.5944 28.778 21.0119 31.2248C24.4294 33.6716 28.7832 35.3375 33.5227 36.0119C38.2622 36.6863 43.1745 36.3388 47.6383 35.0134C52.1021 33.688 55.9168 31.4443 58.6001 28.5659C61.2833 25.6876 62.7145 22.304 62.7126 18.843C62.7051 14.204 60.1289 9.75655 55.5491 6.47629C50.9692 3.19603 44.7598 1.35082 38.2829 1.34545V1.35221Z" stroke="white"/>
</svg>
